<svg width="26" height="39" viewBox="0 0 26 39" fill="none" xmlns="http://www.w3.org/2000/svg">
<mask id="path-1-inside-1_64_1294" fill="white">
<path fill-rule="evenodd" clip-rule="evenodd" d="M0 0H13H26V13H13V26H26V39H13H0V26V13V0Z"/>
</mask>
<path d="M0 0V-1H-1V0H0ZM26 0H27V-1H26V0ZM26 13V14H27V13H26ZM13 13V12H12V13H13ZM13 26H12V27H13V26ZM26 26H27V25H26V26ZM26 39V40H27V39H26ZM0 39H-1V40H0V39ZM13 -1H0V1H13V-1ZM26 -1H13V1H26V-1ZM27 13V0H25V13H27ZM13 14H26V12H13V14ZM14 26V13H12V26H14ZM13 27H26V25H13V27ZM25 26V39H27V26H25ZM26 38H13V40H26V38ZM0 40H13V38H0V40ZM-1 26V39H1V26H-1ZM-1 13V26H1V13H-1ZM-1 0V13H1V0H-1Z" fill="#C778DD" mask="url(#path-1-inside-1_64_1294)"/>
</svg>
